<?xml version="1.0" standalone="no"?>
<!DOCTYPE svg PUBLIC "-//W3C//DTD SVG 20010904//EN"
 "http://www.w3.org/TR/2001/REC-SVG-20010904/DTD/svg10.dtd">
<svg version="1.0" xmlns="http://www.w3.org/2000/svg"
 width="2224.000000pt" height="796.000000pt" viewBox="0 0 2224.000000 796.000000"
 preserveAspectRatio="xMidYMid meet">

<g transform="translate(0.000000,796.000000) scale(0.100000,-0.100000)"
fill="#DF7E60" stroke="none">
<path d="M4434 7393 l-151 -4 -16 -52 c-9 -28 -232 -735 -496 -1570 -263 -835
-481 -1520 -484 -1523 -3 -3 -286 -8 -628 -11 -532 -5 -622 -4 -617 8 17 45
838 2691 838 2700 0 8 -125 10 -452 7 -390 -3 -452 -5 -457 -18 -3 -8 -195
-622 -426 -1365 l-421 -1350 -383 -5 -383 -5 -129 -415 c-70 -228 -131 -426
-134 -440 l-6 -25 382 3 381 3 -8 -23 c-4 -13 -118 -373 -254 -801 l-247 -778
453 3 c249 2 455 5 457 8 3 3 119 364 258 802 l253 796 171 6 c331 11 1075 12
1075 1 0 -5 -154 -495 -342 -1087 -188 -593 -339 -1080 -337 -1082 2 -2 212
-177 466 -389 453 -378 463 -385 500 -381 21 3 837 70 1813 150 976 79 2639
216 3695 304 1990 166 3545 293 4630 380 1455 116 7718 630 7721 633 1 1 -189
169 -422 372 l-425 370 -92 -2 c-51 -2 -256 -16 -457 -33 -201 -16 -423 -34
-495 -40 -71 -5 -294 -23 -495 -40 -201 -16 -396 -32 -435 -35 -38 -3 -263
-21 -500 -40 -504 -41 -1088 -87 -1440 -115 -137 -11 -387 -31 -555 -45 -1260
-104 -2246 -184 -3055 -250 -295 -23 -1299 -102 -2545 -200 -316 -25 -771 -61
-1010 -80 -239 -19 -547 -44 -685 -55 -223 -18 -1377 -110 -4309 -346 -517
-41 -947 -74 -956 -72 -12 2 155 545 896 2898 502 1592 937 2973 967 3068 l55
172 -307 -2 c-168 -1 -374 -4 -457 -5z"/>
<path d="M19020 7059 c-179 -35 -339 -203 -371 -391 -42 -251 146 -508 401
-549 170 -27 349 49 448 189 59 85 83 152 89 252 9 148 -36 271 -136 370 -113
113 -271 160 -431 129z"/>
<path d="M10760 6329 c-181 -35 -341 -204 -372 -393 -50 -303 233 -593 534
-546 122 19 193 55 274 142 88 93 134 206 134 328 0 132 -48 248 -140 340
-115 115 -267 161 -430 129z"/>
<path d="M20615 5723 c-392 -51 -705 -266 -919 -631 -183 -313 -223 -699 -104
-1025 11 -32 19 -59 17 -61 -6 -6 -638 -60 -643 -55 -2 2 76 362 174 799 99
437 177 796 175 799 -4 4 -717 -57 -721 -62 -2 -2 -328 -1457 -349 -1554 -4
-18 -7 -33 -8 -33 -1 0 -180 -16 -397 -35 -389 -35 -395 -35 -420 -16 -55 41
-23 152 102 361 70 116 266 376 352 467 l71 74 130 12 c120 11 130 14 129 32
-1 11 -15 168 -30 348 l-28 328 -41 -6 c-106 -14 -1317 -116 -1322 -112 -3 3
0 22 7 42 7 20 9 39 6 42 -7 8 -633 153 -658 153 -10 0 -18 -3 -18 -7 0 -5
-61 -278 -135 -607 -74 -330 -132 -602 -129 -605 7 -7 658 -160 663 -155 2 2
14 46 27 99 27 112 60 178 123 242 60 60 131 92 221 100 l71 6 -55 -104 c-66
-125 -138 -302 -168 -413 -19 -69 -22 -107 -22 -251 0 -166 0 -172 33 -265 41
-118 85 -192 162 -270 123 -125 274 -193 477 -215 62 -7 690 41 704 54 3 3 35
131 69 284 58 255 79 322 79 249 0 -92 71 -233 165 -328 85 -85 166 -128 284
-151 80 -16 92 -16 438 15 196 17 357 33 359 34 1 2 35 149 75 326 64 279 76
321 87 305 7 -10 32 -47 55 -83 99 -154 284 -307 443 -368 140 -53 221 -67
399 -66 141 1 172 4 260 28 198 54 376 158 525 306 136 136 237 282 305 441
37 86 85 252 85 295 0 12 4 25 9 28 4 3 79 12 166 21 87 8 160 17 163 19 6 7
161 686 162 708 0 14 -6 16 -27 13 -16 -3 -138 -14 -273 -25 -135 -11 -261
-22 -281 -25 -34 -4 -36 -3 -79 63 -49 75 -191 222 -260 269 -62 42 -177 99
-247 124 -118 40 -309 59 -438 42z m-116 -861 c55 -180 233 -343 420 -383 31
-7 58 -14 60 -15 12 -9 -74 -131 -138 -195 -112 -113 -217 -157 -347 -146
-113 9 -200 85 -244 213 -53 154 13 382 153 529 34 36 65 65 69 65 3 0 15 -31
27 -68z"/>
<path d="M8911 5068 c-52 -227 -95 -414 -96 -415 -1 -2 -87 -10 -192 -20
l-190 -16 -73 -311 c-41 -171 -76 -314 -80 -318 -3 -4 -18 133 -33 304 -15
171 -28 313 -30 313 -1 1 -294 -24 -652 -56 -357 -32 -664 -59 -682 -59 l-32
0 13 44 14 44 -42 10 c-289 71 -629 143 -635 136 -5 -5 -43 -166 -86 -359 -43
-192 -79 -352 -81 -354 -2 -2 -39 35 -83 81 -130 137 -279 229 -457 280 -70
20 -100 23 -264 22 -167 0 -195 -3 -285 -27 -135 -36 -317 -128 -423 -213
-253 -203 -441 -524 -487 -833 -75 -493 151 -949 567 -1146 102 -49 213 -75
358 -84 375 -26 718 133 972 448 145 180 230 355 276 571 l19 85 165 14 165
14 12 56 c7 31 16 65 21 76 5 11 19 58 30 104 12 46 33 106 46 134 34 66 102
138 160 166 43 22 187 51 198 40 2 -2 -28 -69 -67 -149 -72 -145 -136 -316
-157 -420 -42 -211 -9 -448 86 -606 72 -120 207 -233 345 -287 70 -28 214 -57
283 -57 38 0 648 51 653 54 4 4 162 700 159 703 -1 2 -180 -13 -397 -32 -217
-20 -404 -33 -416 -30 -13 3 -30 16 -39 30 -24 36 -11 90 53 218 76 151 185
310 359 522 121 149 110 142 244 154 306 28 511 43 516 38 3 -2 -41 -202 -97
-443 -56 -242 -104 -468 -106 -504 -11 -151 49 -302 167 -421 113 -113 223
-159 383 -159 103 0 828 66 837 77 4 4 37 136 72 292 l64 283 17 -83 c24 -122
75 -218 161 -304 85 -85 167 -129 284 -152 80 -16 93 -15 439 15 196 18 357
33 359 35 1 1 32 137 69 302 37 165 69 302 71 304 2 2 6 -5 9 -15 74 -239 228
-392 455 -453 139 -37 161 -36 995 38 434 39 797 71 806 71 17 0 15 -9 125
458 l36 153 22 -63 c80 -226 247 -389 470 -457 91 -28 254 -42 353 -30 180 22
363 97 521 213 l61 45 57 -34 c157 -95 305 -131 499 -122 72 4 151 9 176 13
l45 6 83 350 c46 192 81 351 79 352 -1 2 -91 -5 -198 -15 -311 -29 -320 -27
-320 54 0 23 74 375 164 782 91 407 164 740 163 741 -5 3 -707 -63 -711 -66
-2 -3 -65 -270 -140 -595 -75 -324 -143 -616 -152 -649 -45 -183 -213 -348
-393 -387 -94 -20 -129 16 -111 112 6 28 82 371 171 761 88 390 158 712 156
715 -4 4 -709 -55 -714 -60 -4 -5 -267 -1177 -284 -1265 -12 -66 -18 -138 -16
-203 2 -93 1 -100 -18 -104 -18 -4 -1606 -143 -1685 -148 -30 -2 -35 1 -39 23
-7 54 70 313 129 430 86 172 265 385 393 469 70 45 161 85 221 97 l39 7 -6
-167 -7 -166 43 1 c64 0 645 54 651 60 3 3 6 104 7 224 1 243 -5 286 -63 405
-44 91 -158 203 -258 252 -124 61 -183 73 -360 72 -133 -1 -169 -5 -251 -26
-263 -71 -510 -233 -729 -480 -197 -222 -312 -408 -388 -629 -79 -228 -115
-439 -105 -600 l5 -75 -321 -29 c-177 -15 -323 -26 -326 -24 -2 3 76 362 175
799 98 437 176 797 174 799 -4 4 -715 -57 -721 -62 -2 -2 -246 -1091 -348
-1554 -4 -18 -12 -23 -38 -23 -17 -1 -198 -16 -402 -34 -203 -18 -371 -32
-373 -31 -5 5 199 879 207 887 3 3 87 14 186 23 99 9 180 17 181 18 6 16 156
698 153 700 -2 2 -82 -3 -176 -12 -95 -8 -175 -12 -178 -9 -3 2 26 139 64 304
37 164 67 300 66 302 -3 4 -638 152 -654 152 -13 0 -35 -81 -110 -412z m-3917
-1527 c53 -178 225 -341 401 -382 93 -21 90 -16 48 -86 -43 -71 -127 -161
-192 -206 -73 -50 -137 -70 -226 -71 -71 -1 -86 3 -133 29 -61 33 -114 99
-144 178 -37 97 -20 255 42 376 47 94 150 219 181 221 3 0 13 -27 23 -59z"/>
</g>
</svg>
